<mxfile host="app.diagrams.net" modified="2023-05-08T23:23:24.370Z" agent="Mozilla/5.0 (Windows NT 10.0; Win64; x64) AppleWebKit/537.36 (KHTML, like Gecko) Chrome/112.0.0.0 Safari/537.36" etag="cHWI-fBGPBRpgHUsu4ed" version="21.1.9" type="device">
  <diagram name="PÃ¡gina-1" id="nJkq6BkxdiH0jmpCzgCi">
    <mxGraphModel dx="2049" dy="999" grid="1" gridSize="10" guides="1" tooltips="1" connect="1" arrows="1" fold="1" page="1" pageScale="1" pageWidth="827" pageHeight="1169" math="0" shadow="0">
      <root>
        <mxCell id="0" />
        <mxCell id="1" parent="0" />
        <mxCell id="lpTKYO4_jCH7H7xKTmGM-47" value="Cook Master" style="swimlane;whiteSpace=wrap;html=1;fillColor=#f0a30a;strokeColor=#BD7000;fontColor=#000000;" parent="1" vertex="1">
          <mxGeometry x="130" y="50" width="680" height="620" as="geometry" />
        </mxCell>
        <mxCell id="lpTKYO4_jCH7H7xKTmGM-48" value="Manter Receitas" style="ellipse;whiteSpace=wrap;html=1;" parent="lpTKYO4_jCH7H7xKTmGM-47" vertex="1">
          <mxGeometry x="210" y="40" width="120" height="80" as="geometry" />
        </mxCell>
        <mxCell id="lpTKYO4_jCH7H7xKTmGM-49" value="Manter sacola" style="ellipse;whiteSpace=wrap;html=1;" parent="lpTKYO4_jCH7H7xKTmGM-47" vertex="1">
          <mxGeometry x="210" y="140" width="120" height="80" as="geometry" />
        </mxCell>
        <mxCell id="lpTKYO4_jCH7H7xKTmGM-56" value="Manter Login" style="ellipse;whiteSpace=wrap;html=1;" parent="lpTKYO4_jCH7H7xKTmGM-47" vertex="1">
          <mxGeometry x="210" y="240" width="120" height="80" as="geometry" />
        </mxCell>
        <mxCell id="LmhyNOgJQZw7JddNehP--4" style="edgeStyle=orthogonalEdgeStyle;rounded=0;orthogonalLoop=1;jettySize=auto;html=1;dashed=1;dashPattern=12 12;" edge="1" parent="lpTKYO4_jCH7H7xKTmGM-47" source="lpTKYO4_jCH7H7xKTmGM-59" target="LmhyNOgJQZw7JddNehP--1">
          <mxGeometry relative="1" as="geometry" />
        </mxCell>
        <mxCell id="LmhyNOgJQZw7JddNehP--8" style="edgeStyle=orthogonalEdgeStyle;rounded=0;orthogonalLoop=1;jettySize=auto;html=1;entryX=0;entryY=0.5;entryDx=0;entryDy=0;dashed=1;dashPattern=12 12;" edge="1" parent="lpTKYO4_jCH7H7xKTmGM-47" source="lpTKYO4_jCH7H7xKTmGM-59" target="LmhyNOgJQZw7JddNehP--7">
          <mxGeometry relative="1" as="geometry" />
        </mxCell>
        <mxCell id="LmhyNOgJQZw7JddNehP--9" value="&amp;lt;&amp;lt;Extends&amp;gt;&amp;gt;" style="edgeLabel;html=1;align=center;verticalAlign=middle;resizable=0;points=[];" vertex="1" connectable="0" parent="LmhyNOgJQZw7JddNehP--8">
          <mxGeometry x="0.6188" y="2" relative="1" as="geometry">
            <mxPoint as="offset" />
          </mxGeometry>
        </mxCell>
        <mxCell id="lpTKYO4_jCH7H7xKTmGM-59" value="Consultar receita" style="ellipse;whiteSpace=wrap;html=1;" parent="lpTKYO4_jCH7H7xKTmGM-47" vertex="1">
          <mxGeometry x="210" y="330" width="120" height="80" as="geometry" />
        </mxCell>
        <mxCell id="lpTKYO4_jCH7H7xKTmGM-65" value="Consultar Cheff" style="ellipse;whiteSpace=wrap;html=1;" parent="lpTKYO4_jCH7H7xKTmGM-47" vertex="1">
          <mxGeometry x="210" y="520" width="120" height="80" as="geometry" />
        </mxCell>
        <mxCell id="LmhyNOgJQZw7JddNehP--1" value="Visualizar Receita" style="ellipse;whiteSpace=wrap;html=1;" vertex="1" parent="lpTKYO4_jCH7H7xKTmGM-47">
          <mxGeometry x="530" y="380" width="120" height="80" as="geometry" />
        </mxCell>
        <mxCell id="LmhyNOgJQZw7JddNehP--5" style="edgeStyle=orthogonalEdgeStyle;rounded=0;orthogonalLoop=1;jettySize=auto;html=1;entryX=0;entryY=0.5;entryDx=0;entryDy=0;dashed=1;dashPattern=12 12;" edge="1" parent="lpTKYO4_jCH7H7xKTmGM-47" source="LmhyNOgJQZw7JddNehP--2" target="LmhyNOgJQZw7JddNehP--1">
          <mxGeometry relative="1" as="geometry" />
        </mxCell>
        <mxCell id="LmhyNOgJQZw7JddNehP--6" value="&amp;lt;&amp;lt;Extends&amp;gt;&amp;gt;" style="edgeLabel;html=1;align=center;verticalAlign=middle;resizable=0;points=[];" vertex="1" connectable="0" parent="LmhyNOgJQZw7JddNehP--5">
          <mxGeometry x="0.5733" y="3" relative="1" as="geometry">
            <mxPoint as="offset" />
          </mxGeometry>
        </mxCell>
        <mxCell id="LmhyNOgJQZw7JddNehP--2" value="Exibir Menu" style="ellipse;whiteSpace=wrap;html=1;" vertex="1" parent="lpTKYO4_jCH7H7xKTmGM-47">
          <mxGeometry x="210" y="430" width="120" height="80" as="geometry" />
        </mxCell>
        <mxCell id="LmhyNOgJQZw7JddNehP--7" value="Sugerir Ingredientes" style="ellipse;whiteSpace=wrap;html=1;" vertex="1" parent="lpTKYO4_jCH7H7xKTmGM-47">
          <mxGeometry x="530" y="270" width="120" height="80" as="geometry" />
        </mxCell>
        <mxCell id="LmhyNOgJQZw7JddNehP--27" value="" style="shape=image;verticalLabelPosition=bottom;labelBackgroundColor=default;verticalAlign=top;aspect=fixed;imageAspect=0;image=data:image/jpeg,/9j/4AAQSkZJRgABAQAAAQABAAD/2wBDAAMCAgICAgMCAgIDAwMDBAYEBAQEBAgGBgUGCQgKCgkICQkKDA8MCgsOCwkJDRENDg8QEBEQCgwSExIQEw8QEBD/2wBDAQMDAwQDBAgEBAgQCwkLEBAQEBAQEBAQEBAQEBAQEBAQEBAQEBAQEBAQEBAQEBAQEBAQEBAQEBAQEBAQEBAQEBD/wAARCAHCAcIDASIAAhEBAxEB/8QAHQABAAIDAQEBAQAAAAAAAAAAAAcIBQYJBAMCAf/EAEcQAAAEBAQFAgQEAwYDBgcAAAABAgMEBQYRBwgSExQVISIxI0EJFiQyM0JRYTRScRclNUNTkTZigRgmcqGxwWSCktHU4fD/xAAbAQEAAgMBAQAAAAAAAAAAAAAAAQIDBgcFBP/EAC8RAQABAwIFAgUEAwEBAAAAAAABAgMRBAUSITFBURNhcYGxwfAiMkKRBqHRI+H/2gAMAwEAAhEDEQA/AOnoAAAAAAAAAAAAAAAAAAAAAAAAAAAAAAAAAAAAAAAAAAAAAAAAAAAAAAAAAAAAAAAAAAAAAAAAAAAAAAAAAAAAAAAAAAAAAAAAAAAAAAAAAAAAAAAAAAAAAAAAAAAAAAAAAAAAAAAAAAAAAAAAAAAAAAAAAAAAAAAAAAAAAAAAAAAAAAAAAAAAAAAAAAAAAAAAAAAAAAAAAAAAAAAAAAAAAAAAAAAAAAAAAAAAAAAAAAAAAAAAAAAAAAAAAAAAAAAAAAAAAAAAAAAAAAAAAAAAAAAAAAAAAAAAAAAAAAAAAAAAAAAAAAAAAAAAAAAAAAAAAAAAAAAAAAAAAAAAAAAAAAAAAAAAAAAAAAAAAAAAAAAAAAAAAAAAAAAAAAAAAAAAAAAAAAAAAAAAAAAAAAAAAAAAAAAAAAAAAAAAAAAAAAAAAAAAAAAAAAAAAAAAAAAAAAAAAAAAAAAAAAAAAAAAAAAAAAAAAAAAAAAAAAAAAAAAAAAAAAAAAAAAAAAAAAAAAAAAAAAAAAAAAAAAAAAAAAAAAAAAAAAAAAAAAAAAAAAAAAAAAAAAAAAAAAAAAAAAAAAAAAAAAAAAAAAAAAAAAAAAAAAAAAAAAAAAAAAAAAAAAK1Y6ZyH8O8XafwCwjwx/tMxCnPF78l50Um4TZhWopP1EQwphzWwtxfRZW2tPVSiIBZRSkoSalHYiEAVNnzysUnMFymbYm7cci12eSzE/KUq+5MOZfaoj8iJaV+Hs1ivN/7R85VQfP8AUEb+LAcJyrhtCVMp9SXRKUL1Ntwyuiem3bypRixNG5Y8D8P4UoOkaI4BkvCeZRjvuo/Ljqj8rV/uAj+C+IdlPiH0w0Tibw7q76U8lmS72IzPqUNbwJ+pqpZLV8lhqip2N4uXxevZe21t6tKzQrtWRKKykmXUvYa5O8F8NKjZOHnNN8Q2fkuMiEe5H+VZfykIGrH4bGXSOeVP8N6e+TaqTbZnPFx0x2+iUK9B6K2zu0S0dS6a9XkiAWvAVPwWzCY50niJRuXPMvQ//eWpuY8sq3mcH/fXDsORj30UE2bcNstqYZ7nC1/eVz1ELYAAAAAAAAAAAAAAAAAAAAAAAAAAAAAAAAAAAAAAAAAAAAAAAAAAAAAAAAAAAAAAAAAADWsScSaLwiouY4h4hzrlNPynZ4yM4Z1/a3XUMt+mylS1XccQnok7XudiIzAbKMdT1QyeqpPDz6QxnFQEVr2ndtSNWlRoV2rIlF3JMupew5jx04xL+JhU0DGx0j+VMNJLu+lxMPH7m82ReSKHiCtEQRH731+yS7s2zhXjf8PnECMr3BgvnPDON2+f0z9JLtzQxtQ31cQt+IK0TGOu+mnro0q7TIyDpcAgfKxnDwwzU027G0rEcHUEu083kuiIc4HccfJj6hxltDutthS+y+m+k+vmeAAAAAAAABpmJeMWHGD8HCzDEWo+Uw8Zr2F8G+/r0GgldGULMrG4jz+v7GIwzGZmaowsrWjcJ8LMMPn6tq25jwUt503Ktvg2mX3PVfaUyd2XHFdyk/h2K5qIhH+CPw7cNZI41X+OUJ854hu6t6bbkRLtFtxpPow0SbB3hzaR0T+S/wBxmYDXMd/ik0HhVETyQU7SXP53J+G1w3HvQt90mll3rhFI+xwz8n9tuhmJXyQZWZVltwvaRNZRt13O9XzLMOIUfGbMRE8J6SXXGW9DDxJ9O2ryq6vGz42ZbJRjfiDh5UdSTe1O0fzbmcj4dX97cWw2hn6hDqFsbTjSXO0la/tOxeZnAAAAAAABHuN+BlA4/wBFxFEYgyvjYF7Rb13m9NnW3f8AKcQZ3Uyj39v6kdH8Fs+c+wBpZnALGmh+MriktXMInmaG+I4pxyKa7IaHWyjSy80XatV7XOyrkXSFsjJBEorGKm4yy+XUVnyy/TuSN8G/XfzX8wOXU5xfBSZtML0UZk3oJR/hknVfuuAkODzTSCT1dC0HivI/kyex+vhITiVzHd0NG6vvYaNCbINs+qivrsXUjITgRkorl4Gs1/hpROKMlVT1dyXmcvXa7PEvM3stC/uaUlX3NoPz7fuYplXeGVY5AKnhMUcudPcfhPE7nzbSnFtNaNLaWIL62MW/EneKi3nvST7aF9tjIL5gMNR9YU5X1OQlW0lMePlUfucPEbLjWvQ4ptXa4lKispCi6kXj9BmQAAAAAAAAAQHm8zeUhlMpCCm02lfPKjnm5yKRb7sNzHZdYTE/UpZdbZ224gnO8i1adKbmfQJExcxqw1wKpdyssUaj5NKWraojg4iItdxtsu1htavvdbLx+b9CMyqjgd8QSvcbccMNKCmeDPyRJ6x5zpe+YmZlxvCQbjp9qYZCm9C2iL7k6tfuRWOBZRhXFswUfm9z2zPmc8c2tiU7JM7tjOXq9eVr0JsjhV9WutredSharJpgjOJo+5mgxhavXlTW2JfqR/c3DFEQSvVh3CZiN5gm1dWy0eOqrqAW2AAAAAAAAAAAAAAAAAAAAAAAAAAAAAAAAAAAAAAAAABi6oqiRUZIompaljuDlsHo3ntpbmjWtKE9qCNR3UpJdC9wGLxOxOofBuh5liRiRO+UU5KNnjY3hnoja3XkMt+myhbiruOIT2pO17nYiMxzKksgxM+JziNB4p4oy/5ewpkW58u0/uw8Xt77BsRX1TBw8Sd4qBbc9RJ/dpTZJGavTTcjxA+J5ibB4m4oyfkmFVO7nIJBxDETo4iHNmJ+pYOHiTvFQLbnqJP7tKbJIzV0vkkgl1IQKJPKm9MKd+l1Ho6mr8xmZ3NR+4noMPKJHC4dSlMgpZi0Im+2nUfZ3Gs+qzUZ3NavcGZ7MDZOXRpaW1fmuk7db+CL+ggLNPnYpDK1GJlTUHzeZKv9DuOw9rEwr8TYcT9r+rz7W9+mHwEz54cZkIkqedieUz938OW6H372J1Z+rw7aPsZ1efe3kupDWMzeRWQ1nODxPwXmvJq2Y8v7C4ji9SGWPtiYgmW9DKXS+3rf9SIxs+TfO5UFc1d/2c8xUs5JinD/AMC9vIiee6moiMc7YRhMNC7EMhku5z1NXTuIyFhGIuJlTzpS97WnturSRX6fod/1MRfmKyzYe5mqSfcq97YmsPp4SK0vq4bU61r7G3W0r1JYSXXx5Lr5TBlZ4BzPwPzXV1ktqyBwHzWLtRkRu8rqazP0GlpyKe+kgWXnXdb0TDtdy+37i6aiLpgRkZXIQkHjnE4l0glr02msRsQrGncc0KVbUokl0SRn5MvYewVw+Imp5OTrEA2F6F/3VZViO396QnsYDQPhwYYsznDKEzO1vEczr2vNzj4vQbOjgoiLgmuxpZMndgkl2tp8XPUq6hc4Rzl4lsDKMHqfl8tb0QzXF6E3M7XinTPqZmfkzEjAAAAAAAAAAAA1mqcNqKrSdySoqmkvGTGnOJ5Y9xLrexxCEoe7UKJKtSUpLuI7W6WGzAAD4xsFDTCGXBxje4y5bUm5lexkZdS6+SIfYAFXfh2sv0ll+leDsc3eNorf337l6vGRsXEJ7SuSbJURdFqv+3gWiFT8ktSIqOt8VnIReuCZ5Fw67W1XZidXQyIy6p9xbAAAAAAAVhzgZzGMuLsmpem6W+ZKmnvEbULxxwezscOtXethxtV23lH1MrabdTPoHvze5zJTlWZkMI1RvzXPKi4rg5bzFUDq4c4c3PV2HEFZD+rrb7LFcz6VqwWy5yvCKAm2aPNbUHEVkexufSKRwfc5BF/Auqac1suQ/wDl9v8AXUob5lhyhS3AGVx+POPMy3Kzc2t13ZUXL7KehS6Qry2ndxl5ouiO3+tzKO6Zh6k+I5jdLKhqel+LwMku9xMPxrbfE70IpCO5HDxiNMbBJPoR3t1sjyHvwQwnrnPxihLszuNTfC4Wyne+VZJdlznG7DuQUZ9RDLYiYfZiYRpfqtnrvpTZN1H0dHnl0ug5VBtwEAztMNX0I1Gq1zMz6mZn5MxQLF7OlWuYOrpjgXlJb1EnZ3KsuyWj0m4ovoo9hF77MQz0X/z/AMpGEyY8545VhfinD4L4c0L8/VdD6+fQHM1SrlOqGaiYb1HodTT+604tXYvs27K6qIhmciuKuJeMOBEorHEaYc9XE8RwtS7UPC830xkS2v6RlCOH2ttDXUu/TqLyZilmAGBVHYt1unAjDiRc6wjkl/7QJzxTsNzfeZdipZ9O84mJh9qKbWj6dZ69OpyyTIh1Vg4OGgIZEJCN7bTd9Kbmdrnc+p9fJgPsAAAAAAAAAAAAAAAAAAAAAAAAAAAAAAAAAAAAA5i1pVp/E4xHkMlp+mOUYf0JxXGzfjeI5jxrCVN+gtMO+ztvwJo7TVqvc7JLuzudTFisc0GJP/Y2wimHDSQ/+LIjaaXxP08PMYLtiENrRpWw4XpO9b9/SyTurgdg7SeBlHw1CUi3tS+H17Td3VW1Ouun1cWtX3Oq8q/+xBsdH0fJcO5G3IpM1sy9m+lOpatF1qUfVSlKO6ln7j6tuyYmeEl71yc9tK/Y7+//AFEBZ8Mxk4y/4Txk4pxF5k7t7Kro7bRMKlXRbS0n2vK8l/8Aqs1Py34mmF/Lq74b58lERvcfB66flezpu016l1KVdbmrtT027H0VcBk821G1ll7zRU5nHkEk5rK5ZxnNE8S0xw25LmJcz1WpxS9Snj+1o7W69D1FOeLWWvLrn5w1ZxSombbU0nGrkdYbEcrh9qIbYiPoXHWEr1JhFM96St96bnYz3zL/AJhMNs2GH7rsA7vOlp5jAaYhOz67u16pttEq5Q5q7fHg/wB6j1xh/iV8NXEGLxfwQp7nuEk32/menOLh4XVtMJh4P6qJVERJfVRrrnpIL7dKrpMjIMpl9zRYo4T1SeXXNjB8nqY/wo7ch4jivTdi1enANKbRpbch09XOt7+SUQuhFNsy2LKJk724hr30mVrlb839TGh1thllzz/YT0/Wii+YpIvi+QzX6+E2rRKW4n0dbC1XXCaPULppunodzrJgRjbi5lsnMJgFmjhuXJmO5yqZa4V7c20OxT3pQTblrbzCe5Zebl+YinKMLZ4pYU0bj9SEwp+u4bjIWI2tyG1ut30uoWXe0tB+WUH59rfrekWHOKOJfw4a0gsLsUIvm2EsducpmG3DscLoaW+/6TCIiJXqio1tPeorWuXaZkXQB6H5XF8ZKXt1DX59Om1yt4Vf9THgxHw4pXHmhZlS9YQHFwcZs70NuuN30PIWnvbUg/LST6H7W/qkhJkom8un0uamsqiN+Ff1bbmhSb6VGk+iiI/JH7DWMY8NpZi7hvN8PJyjVBzbh9wrqK+0+28X2qSflsvCi/6+Bz/yx4m1vkaxiLK/i+rj8P5v/wAPz2zLXLNqFejYr6aHQ8+9uPxTbfqOFptqTdN0l0zEJVT+G5jHLcTsucokb8w3qmpviOdMbSk7HER8YqH7iQltWptF+wzt+axi1gqXjZluqigcTpVmOyu0VzCrmN/5hkfMm2vmHVDtwcL9RGuqahOHaW+56bfqW0q66TH7w/8AiE0JHMPs43U3/ZrNYXTvwPGPTnb1Gs0+pDQ2k7pJpXT/AFLeUmAtiA1Wj8UqEr1DblJz3jku30HwrzV7ar/iIT/Ir/YZmOqGTy2cSyQRsZtx843uCa21Hu7SSW53EWlNkmR9xlf2uAyICPcWsc6EwZ5Uisplwzs53+DRsvL3Nnb3OrbayKxOp82vfpfraHptnxpCCdJiX0xxzivCeNdav4PycP8Auf8AsAtGAqQ7n4Uwlbr+E2htFu7n173/AGKHGNi/ib4SyeFeiKilPL1M6dSN+Jd8nYuqIU/1L/cBckBEmBWZChMw9Nv1Dh1G8azD6dz03m9Opx1BfjNNmfVlft7f0vJcBBm22mIjGtDxX6ar28l7dPFgHsWt5LzSEMa216ta9RFosXTp73EUZmsw9O5bsNoyuJxDcdGI2+Cl+txrirxDLTnqpbcJGkniV3F1tYv1KJY/4iGH1bxbNO5XpF/azUkTq2ZZxT8h1aSJavWjYYmy9NL6up/5VvKkjVMJMo+LGLmIMvxzziO6ZxAbvCUzphj4XWw5Cr+rl7yUr1IbhneqDt9pddRgJM+HzhLOMKctlOwdYSXl1WRvGc4RxKXtWiPijY6trU0XpOJ+z9evW4soAAAAK65vs23/AGY4amoCW0X8zzuq+M4CD5lwV+FOHNz1DZcR9j5q7tP22K5n0DEZxc46svJyikaPpj5jqyf8RsQ3G8HsbHDuK73GHGlamnlH1MrabdTMrank5ybwOXuBfxhxji+KrmK07zu2aOA0qiIdPbDvuMu62Xmy6I7bfzXMv3kpyYs4KtLxfxXPiq+jraldUcDoOJhy6MPrZd1sOt/kLTb+a5lCGYDFytc/WJisumAkZsUTBW5zO9tpW/rh2ouH+nikMPJ0vQjqOxzr9x9LEYY+t6vxE+J/i27hThtE8jwmpvTz6e6GInRxEMl+G+meTDxJ3ioFbfpqP7tSrJIiV0mw8w8o7CmjpfQNAyflchle7wkJxDr+3uurdX3uqUs7rcWfVR2vYrEREMTgxg7RmBNAS7DihIDhJTLd7aRuuufiPuPK6urWr7nV+VH5/SxFz0xsxsrP4i9UKwQwQXyjDGW25/P7NRHNdxtuJhvpoltiIY2omDdb9NZ676ldpERh+8f8wNb/ABBqrjMuOXBe1hk3t8+qKzKubXbajIb6WMbYiGNqJg3m/Tc7/uV22I8ZGy2WTqfNZHcqsZwsvitXzLUG2perSgpnCfTRxkorKKIb9N731K/KkezFiuioJ6FyHZJZVx9WTPXxCt/a2tskTRP+JJU0q7S4rw8VrfrpSLs5TcqdHZUsPvlSQxnNZzGf4vOtt1jmGh99xj6dTzqGttEQaOw+62o+p9AkLCjC2i8FaAleGeHsq5bT8m3+Dhd917b3nlvL73VrWd3HVn1Udr2KxWIvtiXiXROD1EzLEbEadcop6UbPGRnDPRG1uvIZb9NlC1qu44hPRJ2vc7ERmNYx9zB0Fl3pE6qreO2zd/hYfaePfs60hfc025p07yT6l19ve3NjG+uJtjwULmRzSyzklASjX8l0PvJid3d24OYf3jApQ+mz7TD/AKzZ31aEWSSlGGvZs89GIOYmiyptMn+U8PZv/Hy/iGI/mm06wtr1eHbfY2n2dXaZa9djukuvRfI7gXMMAsvlP0dU0j5ZUyeL5qjiUvarx0S4z1Q4tsvTeT9h+/Xr0KHMi2WyZTObNZp8aoPerGJ1fLsJuJTyLSmJgYrvhnSait9omj9Rv0/Cet1C8QAAAAAAAAAAAAAAAAAAAAAAAAAAAAAAAKt57M0VV5e6ep2msPpNxVV1vxfK4niG0cNwa4Zb3Y6042vU08su402tcrna1o1GZFdKbn+lxzZ+Hlh3MswNcT3N1i1U3PKumXC7D3BJhtvbZi4BXawpDR3aZbLq0VtP6majCwOSHKXK8u2G5wEyRvT6Yf4lG3Unidt+JNr0yecQjSh4k9tr+T6+Jqn1aUsxO2pa5NLRatVm9hz+QledNvAzeID8+hqRj36Za3Jkna2E6kFf1UErqvt+3V5HKXJdlNwVzhYZ1NOaxn/E4is8FxsTwsWjld4iIS32NvNMP7sPDJLtLstc+69w6I44YE01mKw6mtGzxWpmP2OtnC06H23PyuNmdzZL3L/2OuGVPG6vMvNbUxkvxho/bUXG8BP+YMnr9F+Yu/TQ7blrbzbfc9/zF7pLXKAx0x2yO1HKsOsz8v36GnG/yWoN2DT+E2p6I+mgm3nvxophvvUX8ybp1EVu8aMEMLM2OHrMvnzfFwytXL468S3s+u2bvpocaNVzhyT3eLXL9wgbMVkgmlLTOEx5yawHJcSZLub0s3UxPPd5LMKn1pi+cPC7EOqJV0Qe5qt0USTG/ZSs4FC5tKQclkdDcFULFuYSvW85o1Ovqa9YmWkHduHJfb+tj6+YlyyY1YlZbKupTKJjlRWxDxPHcrqTmUOrd0tPTB76SGbcNNjeaa7nev3F7pLYM6GSypKsqxGZzLUXBYuy6/FQnpuc/wBxqHgkd8Y+ULC7EKl8+jZ7l7H36VAIur3CivvhxYkxWOeA1Oc8wqmWj5mpfjGYbTtw6YWE+silxESd4qNdd9NBfbpV2mRlZqqcOsAviD4L0/WkVDc0lb/F8kmGuNY2NMWluI9IlMKVqVB6e8ulrp6Hc/Hk1zeUxmvoZaY2H4Oo4K3MoDW45o1vRG16pMtNnduHJXbfzY+vmAsV8stZZNcSWswWWaX8bT7mrm1N7rTe3aHRCMfVxrrqzu5Evu9iPbSfTSZB5MpGY/EbDes4zKRmQhuU1pA7fCo1sP8AEa2n49fWDaU0jSytny6d79OpGkXbcvT85JcCrd2/B203uj97/qY59Zmcb8Dc8eXlnEGVTXkWIVAauHlWxGRXB8dHMtK9ZTbLDmtiFNfVKtOq3aornajJ7idOcbcvdP4oVG3pmcfxe71Qf2R0QwX2IQn7Wk+El/v1OYRLI5vcuUvzI4WzSXRRcJNW9jl73c5sXiYc3e0nW0q1JZt3eL9OvnTvhn4+TPFbCCKw+q092rKB0c5iO1O7x0VGOsdrbaWk2abSXYpV/J6T6C0r7651SZxBdq3v+trO2/b9Bz0w0YjsMPigfLctf0yivfLOkj/gaeWv7j1K+9wz8p/+YhCXSka/XFC01iHIX6bquX8ZARGnW3uuN30rSsurakq+5CT8+w2AQnnNrOfUFlxq2paWZ3pvC8BwzepCdWqPh0L6rSpJWQtR9S/p1AVW+Hrkvy8Yi5eKKxvrmhOa1ZNeZa43mkcxp2o6Lhi9Np9LR+khCfsLxfqZmYvRVGFFAVpVMgrWpZBxk5pfiuVRPFPt8PxLaW3uxCyQvUhKS7yO1rlY+o07KVQjeGmXylaJaZ2ky3jrI1arbkc+751K/n/U/wD2EvAPi/BQsS60++1qWxq2z1GVrlY/A+wAAD4xsFCzGGXBxjW4y5bUnUZXsZGXUuvkiH2ABhado6nqUaNmRQHDIPyW6tfuZ/mUf8x/7j1T+HlsXKH4eb/wi9O593sojL7evmw9rqzabNaUare17Dl1j5i9LcZ4GBnGcDK/yKTUlu8PMPnVUVw3FG0lXpS9CFr1Lahk9SVbVfoRKuFkPhZyGWS/JtRU8hWtMZNuZcUrUo9W1NY1KOhnYrEfsRfvcW4FD/hTVxCVBSta0lKInflNNct4NzQadXEORzjnRSSUXcRl1M/2sQvgAAAgPN7m9pHKXSMDNZrKueVFPN3kUi33YbmGy7DpiPqEsuttbbcQTneRatOlNzPoHlzf5u4DKtLKfSikPmaeVTxfK5bzBUFvcMqH3vV2XEJ0of1d2m+mxXM+kVZJsmkRh7FLxtxjf5hXUfa6tJNcLoKJhvEO+plephbf5Ctb+a5jX8mmUSYyeZRePGO0x4yvI3b1eilvgtCYiFL+FeNlzWwbX5O2381zH5zrZm6/ratYXKPlnheb1tUOvf72IfhthmGj0/xrRMr1Mpf8Ola3uZpSA1zNTmLrTM/iCeVHLg9xbEX/AInFaWm9/QwxHM9kY02adJsPF2u9bXP2SdycuGXKictdCNUZSKN11WrjIy7yeJ9Z5xHpuOuaNJPqT0Pr5P8AQsLlLyp0jlSw/wDlaTTDnM8jv8Znm07D8x0PvrY+nU86hnbREG32GWq2o+p9KVYvYp1Z8SmrIbCvCaF5DhvINfO5/raiuY77Tb8P9M+iHiGduIgnG+xR6tWpVkkRGH9xexgrH4klVowfwdh+S4ZyS/zBP9bUTzLebbiIX6aIRDxDO3EwTjfprPVq1KskiI9rxRrQ8E2YHJdkxk3H1tOt3hmOI2uH2TRMV90xStlepl2JPq8VrdLnpSWdxlxQkmU+mpflny2yziaomm7wMLvLRsbbjca53xiHW1amoh4+5wrWsXXSkpayV5RJTgbSUHV9ayHRibH7nOI3ilHq0OxDbHptvLhytDOpT2EX6n3XsG05QcpFHZUKHiJRK4rm1UTrR8wz7Q6xzPZeiFQv0ynnW2dtqINv0zLVbUq5n0/ebbN1QmUyjYWc1DD80qKc6+QyLW8xzLZdYTE/UoZdQzttxBOeoRaraU3M+nizg5wZDlMkMlioqmPmOd1HxPKZTxq4PiuHXDk96xMuoRpREa++19NiuZ9KlYb4Is4VNTnOPnWn/HVu5w+qH4U2uEsa5cXdLXFMua2XIY/wulv5tSgGrSTD9bUNG5xc9874uYr2+ElfDbe5Yzl6/WlatJWTwi+rXW1i/Mob9lewUrnOjXzWa/MLC6KW7vlyVa2T4z0XoCK9aEcZcb0OwzK/Ua7vCel1Hi8D8C63+IpXcLmSzIwWxhXDa/lundxlXN9TLkHF/VQbjETD7MVBsueo33/antuo+nAAAAAAAAAAAAAAAAAAAAAAAAAAAAAAAAAAADnFhbIJlkEzVu4auyzgsNMTdPIo/eS5vculq3on07vxCdMRF6e9SL3unUnoXR0VzzvZVpNmbwzQxCyvdrSn7/LcdvrTwe/EQxxfpm8205rZY0+pfT5TY/IWM63LoKFZsMqVWYd4nQOb7LTC7VZSbd4yD1tK4reh2Je36kY8ppGllb6ujR38HY9KhInw/c1kNmGw1KDnsX/3olH8e1tn/mxEUbXVLLbf4TJH23/ex+bVEZsONQzbHpq1d2rx7+AFbME8YsG/iJ4BzCTVfSehmL2vmWluPij4PRGuKhPrG0MG5rODS76Z9v2K/erVPzfFL4YFdw1HVZEfM2Ek418BM9ENBX2mTcc9FsoiJ/io5Ke4y+25XSdk7vm5yhVvhvX0Lmwypu8srST695nSy9u7rLEAnujnlNJsyuIPo0d7+xklQnDL/mAwfz/4OzOSz2neHiUbPzPS/FxS+BvFOqhPrEtsE7rKEJ30j7ftV+4bxifhLg9m6w4hW52xzaVP6+Ai9UUxos+jc7EraUd1Q5F3fpcuh9ah4J5gqzyI1DTOWDMVIdqi3eN5bWHFNK2LIcjXfoYRt51Wp6LZZ7nOn3l0uktdlNU1v8MTFuAoKs4/meE1VbvKZhtMs6+Ghjdf9JsoiJK0VHJT3qT4uV0mZJvnifhbhfmcw5dpqqoPm0jmGnSe5EMfhvoWf2LbX97CfcvH6H1mBW3OrlZqxFcwWavLfLuHxIl+5zhG80vnG4zDwLHWMe2IfZh977Gj1+/dZQnfLLmRpvMXh2xWMtb4WI7uJhruL2vXebR3m02SrkyZ9C6Xsf6nTumKtxw+GrBTKippSP8AaTh16PJIzj4OT8B1U5EdiSiH3dyIjSLvPt27p7VWLE/Dup+OmmIOImJNLU1yWiZvyjg2eMKJ1bTEWy53LMni9YlH1SX3dLkVxAsriN8OfLhijP1VVPac+uetvucZH+pZCEJ6JiUkVktl4LqJfhJFJaBlbdKU01tQLV9DWpatF1bh9Vmozupaj8j8zSYKdijUwu6S8Hb9i/Uh4HHlrUbq1dS97C0QrMpCp9BN0ywl3pbVf3/zDFC5xENO/FDwjh0uanGef6ysZWvTxGQvU/Hxj1NRO9C7LzWj85Kvdz9ungUByzymOxu+IRWuMkvVuSeguW6CsRbXHSR6HPyaFKuto/yKt/yl1OqzpGK751aYx6qfDpqEy+U/zSok6tP1cExt3fhzP+LMmzu2l7+lv1MhYgAFLJTU/wASaey2Jhpphd8rxbmjZiedyGN2rKM1diSIlXIiLr41X9hlqWwizzThJwmIuYe7K/uV8pSfpbUf+Ssj8kj/APri3oAKkVHkcrWoicN3MHtLctdXymyrxb/4gv5RrMP8LnD+MSfzfWvPF/zctfhv/JuL/ZP/ANP7i7oAKQn8JXLXcjKXdPct6P8A/wAwZBn4Y2F8pPXS1QcqcLwrhIh+3/RcUf6q/wB/2FzgAVopjKbXFEq4qRY2XeT9pfLbPW+ovzPGXhRjCVzFZ+abcedoSW/NZdu03vSWBt9urq7f+Zfn+T9yFsgAU/yL4aZgaOrvFesscMM/lAqv5Fy9jnMFMNXCsxLbvdDKO33NH3En7+l7GYuAAj7HPGyjsAcPZhiJWsTtQEBtai0Oq1a32mf8ttai7nk/lP8A9TINPzaZsKLyn0CmqJ/Cc1ncffk0k3HWOYaHmEP/AFCGXUNbaIgl95FqtpLqfSqWVfLvXlR1pFZqMy8z5viLPdG2nZZh+E2Wn4E+sE4TDmuHSx/lla3uo1KHhy7YO1jj5Xy81uYBndjY23J4HU0nRoZdgX/UhFoI7paZV3tfsXuo7mrUpwzUs7mfkTEImUM5wsxkyy8YPx8ylCtc2j9rgEWSWrRFQ6XeqmnElZLx/db9uvjaMkWWeBy54WlPKykXAYgT3/iaK4o3d/ZiIlMJ2NuuMJ0sPJL0yK97quq9tBzgZfZzj3SUscpiK0T+nd7gGtCD3uIdh9zqtxCE2baUfde/tY/MTVnghm6zZzliDzDzr5VpGG1bMp4aWR2jUhJq9aEcadO7sOyvr/PbwR3czk8OKGKVXfEsqeEwywzgPlzDWRbnPZ7utRnMd9tD0N9M8iHiGduIglt9ij1atSrJIiOV8fsb8OMgeEzGG+GkHuzWK1csgdx9P2xLTz3qPNvp+2LWruV+xdbEW1Yt4n4Z5EcG1yWmYWzJW5TAa4j1vqm1P+qtDxp0nFqV3n18F+2q5F8qNQrqp3NjmDa43EaZ6eVo1Ib5RttxMA91hHtiI3YfZ+5otFunddQhLZMkWTWa4abONmO0Jv4rx+rWjcSnlmjiYYusK+qGe3YVbX5C0f8AiuY3LNvnJhstj8jp6RUZ82VHP+J2IDmJwGjYJhavVUw42d23jV1Mvst1M+mpZvc8i8KKthsC8HZR8w4jxuvim+I4TlWhqHikdYiHUw/uw7jh9F9mnr3GRDXMv+XGgcl1EROOuOEyvVzejfjNl76O7zsKn04Z15pzW1EtJ6I7fPm5kGtYI5caaypU3MMzmZqdb1fJ2tSuGcTyv1HILxBOusv7rEQx/l9n/i1KLCYR4OVf8RatoPMFj/L+Gwigtz5cp/daXzrWy5CRX1UItiKhtmLg2XPUR330p7LmfrwwwsrH4i1awOOmOcs4bBiD3fl6n95pfOtbK4WK+phVsRcNsxkG056iO++lPZcz6MoQltJIQViIB/QAAAAAAAAAAAAAAAAAAAAAAAAAAAAAAAAAAAAAAAUCzu4VVLgJW8mzaZfqLtGQnEfOkTzFv19TMNAS/si1rJOknXi9Frr5X7KK22A+OdFZg6Bg68ouL3oSK3NSdt1OjS8615cbQZ3NlX5f/Yzkcc08acDK++H1XSswGWeV8Vha/b5jpvfZRyrSy3CQv1ca4/Ev7sTGPu+mjstpV26TIOk24plxtna7VX7tXj38Ciua3JjV9O1sxmhyqTDkuIcn1fT7TUTxm6yxBfdHPmw3oh1RB/hnq1eyiSoWbwNzDYbZhaPYqijZnxDT2rW3sxCNFnXUF1cbbM7myo/Ht/S8ipKJl5tQkLBa2O669wi0+/g+p3MwFUMEcxWEGf8Aw7nmEeKNGcHFPcNzinOYxTl7PuRDH1TDTBeIRtzsV76T9yOHMuFX1HkpxzfydVbVnzDTq9PIZtwDcJ4g3phE+i2l5z8SJSj1Hfy3T0PSUtZwsj1H41Rr9eUvOPl+tD0/WcO7F7vSHa/DW+hpNmWlJ+3rqv5K5wnTeAObbFbGml64zM1HxEBSPG8JEcHLEb3FQhtL7YJxKk2U2wXVKr+1u4wHRWdzpDDhQ2qyD8nb+h/oNcjZ2UNDLlsAvUyq3W1vcle5X83GOmUWcREK0quXT2/Yh4hbCuQZOmjhkTyGcjFWaTr1dD/kO3jr5sMYP0nr09xKGrZw8e2sDsL55UynPWguG2WLH62uIh0K7ttZJsTt+pdf/TUvho4OwuG2XOV1TM5JwNX1Xv8AP18Sbu9wsfGIhuiVqaTZpZfhkm9+65in+Y/EKTYw5wZDh7mFb5PhrJeK3XrriL70rZdLthEoiP4htkuij8+ySMh10FFwAAAAAAAAAAAAAAAABzz+JmmRQGLGC1VYoy/foOUfMfHK3Vp07sNBtt9GPWP1zb+0j/eybjoYNWxPwwobGWhplhtiTI+cU5ONnjYLiXofd2nkPN+oytDibONoV2qK9rHcjMjDRYeLhY6Hbi4J3cYcvoXpMr2Ox9D6+SMfsc1cKsxRZKMTpxgLP6y+d8O5Xw/Bzvl3LeH3IdcUv6dDTz69URFEjqs7aNRWSdi6SQUfBTOEbjpc/vQ7t9Dmk06rGZH0Oxl1IyFolWYfYfVUQ+4Zkpd7/sQ+Q/pHY7kJQoVVc2p2ffEpRKsaZhs0rT9+Bg9pxWvfkCVOepDEThWdJpXcZ/oViuJrzZZ5K3h6qi8uGVaUcyxJidv+9uIZZ5VpbYjPwI6H4d/dh99H4nZa/wB2khJ+I2V3B/MY5Dw2JNP8a/Ba+Gd4uKa0a9Br6MutkdyZQXX9Onvf3SbD7LnkXw/mVRyeX8igWdniHd2OitV3zQntUp4y7ooy6F+b9ulF0d5estuEuQrDmLxMxHmmuelt8wmuxElp9d1lr0WXX0H2RaEdqf3PrcyjjDnDquPiMVvK8asa5DwmCELv8hkPFMuc31Mrhon6mGUxGQ+1GwbTnqI776U9lzP+YYYaVr8RmsZfjhjlJuCwWhN3kFP8Qy5znU0uGifqoZTEXD7MZBtOeojvvpT2XM+iMDAwsthUQUE1tst30p1GdrmZn1Pr5MwH6hYViDYTDQyNDaL6U3M7XO/v/UfUAAAAAAAAAAAAAAAAAAAAAAAAAAAAAAAAAAAAAAAAAAAAAFEMcMic/wAL3obE/I7LuS1NL9fESPeRE811k2wn6iZxCm2NptyKc6JPXq0+SSYyuWb4kVE4oRiaTxOL5ZqY72hPWjdXR5z72YVLZWbbQfn81vJGLtCKcbcrOBGYx2Uv4yUL8wLke/wB8zjITZ3ibJ3+Heb1X2W/uvbT0tc7htUxdptxtUZBO3fbtbtc63sXv08XGuRs+mkWSmoiJuhVrp0J/wDUiFJiyj54csTcBA5fsQv7R5Snd35fymUSfT7p9WLecUd1PvK6f6dvCitsFQ558yuCEVDSrHbLpyZUVr24j5vgIi+kiUfbCw6/9VovPv8AsdpyjC1BfsAqgv4ptLuqSyulrxK72a45zrbr93CW8dR7pHmizFY8Qrv9iOBm+aNOuJ+ZoFOm5nbsiWkX/CdL/wA/0uyYWZjpjAyuBcmUzf4eFYtuOaTXa5kkuiSM/JkQjTCfMthPjZUE5kGHtQ8yXJuH3HOEiWde8hxZdHWkWttL9z8e3S8VQeRfHfMKS5tmYxB5O2VtEi5TBxH/ACn9RBRDf+iw5499Psq+oM0FX3w+MQo15+N5/hzUW36u0zC6+HYt9pKffK0RGW9vt90n0ZMLL434I0lj5RrtH1WjSZ6eGirunseq24vsbcRq1bSS6n08l+hwflJzEVbl6rSWZRcbJdpZZ3uWTfeaPRdp+Pe9CGacM7m80jud/cvdJWcpyppFWMhhampqO46WRuvYf2ltatCzQrtWRKKykqLqReP0GhZgsBKXzDUYqmKjXw8WxbgI+zi+F1OtLc9NDjZL1EylPcfTyX7sGVsQFCsk+YOu6HrKV5PsXKd0zqE3+DmnGMnvamomYOejDtmhNkKbR1d6+S63SL6iEgAAAAAAAAAAAAAKJZuM6daqryGy45WIzexAitfGR220nlulliMb9OOY2HtxjfT0c7fJ92kh7c6ucGppbWCMq+XI+LxPmN+OivTb5LttQ8c32RjPDxO9DG8Xa4Wi1z7rJGQyt5Yaby00gcrgYvmM8jP8Rme24zxOh19TXom64hGlD5p7T62ufXwHnwLygYaYRYbLoeay/nUXH25pGbsRDcVoiHXWexLyiRpJwi7TK+m5+bCY6gn1PUNTkTP59GcvlEv0bz22t3b3HCQntSSlHdayLoR2v+g9sdMIKVQT8xmUZsQrGncc2zVbUZEXQiM/JkQo1W05xg+IFXkfhDg4zyjDWn9r5jnmqFiL77KYiE+niCYiP4iEcb9NZ+dSrJIiOeiOq9VDzilq+p1NTSKe7sBFX4N/hXE7ulxSF9qiSpNlIMupdfYZFmSzOIiChm4X1FeE60/pf9RR1/DbFr4eVQzKp4CJ+ZsLHtni1aIaC02RoR0NT8Sd4mMPwX5evafSylT57sI6XwmTiU5UPFQkRfhHeEikb+mJSyvt4czTpNVuqetun6hkwkTFTEHD7L9RUdWlXzrhuX7Wp/hn1/iPIb+1tK/9ZJeD8/8AUqc4QYSVv8Rar4PHvMBA8Ng/Cbny9Tu6yvnWppyFivqoRbEVDbMXBsueojvvpT2XM/Lg/l0xKz6V/D4+5qYLhcOoPXySl9yHXzTWw5CxH1kC6y+xtREIw73o776U9uoz6WCEhFboQAAAAAAAAAAAAAAAAAAAAAAAAAAAAAAAAAAAAAAAAAAAAAAAAAAAAAAAAAAAAwlbUTTGItMRtHVjLOYSeYbfEw2841r23EuI721JUVloSfQy8WPpchmwAcvZ3S9f/DwryCg4CH53hlOdzW5rYhtzZZIy6Gb8QVomMMva+n3SfS5FJVNT9YyGFqSl5lxkqjNfDO7K2/sWpC+1ZEr7kqLqXt06CX60oumsQ6ajKPrCW8wlEw2+Ih95xrXocS4jvbUlRWWhJ9DLxbwObVcU5X/w6KrXPJNLueYWTC3E+sxDadttKUfcb8Sf1MYfgi+3r2n0mESsRmHy80jmEo5ynp99PFtW4KM9Vexd1pbnppcQStRMknuPpe5fvqWS7NLV0pqmVZQceZBwNfQm/wAHM+Kad5vqbiJgv0YVo2YfaYNpPV3vvcu66RNdGVhTmINNwtXUhMeOlUfr2IjZca16HFNq7XEpUVlIUXUi8foI8zC5eJJjvTzcI65wU8gb8vjrLc2da2jd9PcQhV0Nae69r3Lr5TBEregKW5OM7E/rKsV5acxsDyfFaBtwb26iI57raiIxztg2ChoXYhUsl1cPcv07iNIukISAAAAAAAKa5us6M5pOt2stWX1HHYnxmrmEZdDXy/oZYjGuyLYOHi+IhlPF2uena591kjyZz88M4oGq05cMu8LzfFeMvxbmtEPyPQ3DxiOkWwqGid+FW8XRz07de4yIfnK7lYkWXqSvR0U/zKrZnp5nMdK2d3bW8TPpE840mzT2ntte1z6+A9uXDLXTeAMnfdZLiqhmWnmEf6iN3bU9tembq0Js29p7bXtc+viXJnNZZI5e9NpzFcNBw+ndd0KXp1KJJdEkZn1Mi6F7j51FP5NScjialqSO4OWwejfe2luaNayQntQRqO6lJLoXuKbU4nFj4gOJMrdlEv5TgvA7/Fxm7DP69cOej01bEWVoyENPS/m59hdZ6I6v4/E4qZ+8U2qFohnlGEUq1c+nGqGiNG7DbsN6DuxFHeLhFI9NR+bqsgiI+jWHmHlH4VUfL6BoGUcrkMr3eEhOIdf29x1bq+91Slndbiz6qO17FYiIh/cP8P6RwtpGAoShJTyyRyzd4WF33XtvcdW6vvdUpZ3W4s+qjtexdCIhsIhL8uNodQbbhXSfkriv9M5BMpVHz+X1RTmE/CTOVbvCP89mbm3uoUhfauINJ3SpRdSO1+ljFggAAAAAAAAAAAAAAAAAAAAAAAAAAAAAAAAAAAAAAAAAAAAAAAAAAAAAAAAAAAAAAAAAAAAGNqSm5LV0liKeqGC4uXxejeZ3Ft6tKyWnuQZKKykkfQ/YZIAHK+u6CxD+G3W7tXUejnWE0508dB3YhtjaZS236jioiJVqio1Su0itpsd0n0unQ1cUziRTEJWNHzHjpXG7my9suNatDim1driUqLuQoupe36WMThO5JLKilj0mnMNxEHEadxvWpGrSolF1SZGXVJH0Mcx8TMLsQPhx1jFYnYaQfOsI5jo5vKtxiG4PbaQyx6zy4iJc1xUatfYktOmx9pkZBNObbKjIMy1KJShzgaogL8uj7Ld0a3WN3095ts7tMae6/m5dfP1yR51akrmfry4Zjz4TFmWW2Iv03OfbiImMV2QbCYaF2IVDJdXD3L3+65CVMPMQ6UxTpSErSiphxsrjdzad2nG76HFtn0cSlX3NqLqXt+ljEN5t8pUnzFSJE0lLnA1fLr8FF2U7q3FsJc7FPNtF6TJl3Efm5dfM/BHxXnAUxyQ52JrilHqwOxz+jxNgLbUR2uc51piYlXbCsJh4fZhm2i6rPXf+a5C5whIKUZ4c7U+w7m5ZesvB8ZivMPxonsb5HtphotPZFsKhonfhVvF0cLbtf7rEPTnfzqTzC+PRgbgM1x+J8yvuP6kNcm20w0SXbFMKh4jehnHS6LLRb+axDCZScpspy+yVU7niuNrOYW42LspvRtrfS32JeW0d2XiLtIvFz6+A+uUbKZI8t1OuRca5x1WTG3HRlltfhuPk36ZPONfhPEntt4ufXxN9V1VT9DSCKqiq5jwErgtG+/srd0a1pQntbJSjupaS6F7/AKDzV3XdL4Z0tF1pWUy4CVQO3vP7LjunW4ltPa2lSj7lpLoR+f0uYq1hZhfWfxCqogMW8VZXyrBiB3eRyTfaf5xrbXDxH1DC2IuH2YyDbX3pPXfSnsIzOUPLRdHYgfEJq+VVbVEk5dgnDb/DMcSw9xuppTa+5CmItvRGQaT6l3X6dnnohQ1DUthtS0FRdFyvl0ml25w0NvuPbe44pxfe4pSzutaj6mfmxdLEPfJJJK6clbMmk0Lw8HD6ttvWpenUo1H1UZmfVRn1Me4QkAAAAAAAAAAAAAAAAAAAAAAAAAAAAAAAAAAAAAAAAAAAAAAAAAAAAAAAAAAAAAAAAAAAAAAAAAAAAAfKLhIeOh1wsU3raXbUm5lex3LqX7kPqADmTjbg1Wfw86uiscMCoDjsIY7R8wU7utNcp0NNw0N9VFLfin92LjHXPTQWi2lXZYythhviTSOLNIQlcURMOMlcZuaHNp1v7HVtH0dSlX3NqLx7fpYxYZSSUWlRdDHMbHTAuuPh81fF4/5fZbxuEkRt/MVObzLfKdLTUJC/VRbj8S/uxUY856aOy2lXbYynOETGUl5tcp0PjlLkVdRyuEraX32XLG5xG4phtXRx5DKNLLSi6kd7/ra8dzf4l+K0xw+PD6R0Ly/FWI/Di+Zwzu1pfJ0+xULwyrwpGXVXS9/u6DL40Z+JT8kQUmwCjuZ1FUm5pVtKZ4Lh3m1H0iofQ5rb3vctNvczIbblQysKwchTrWvVcZXMd+K7bb4XQb7aejTy2V6mXEF0IrW/muYYMv1lKynQeA0tcqiqXePrWZW4qI0m1s7an0I7EPLZVdl1JdCK1rn18TJiXibR+EFIRldVzMuBlUDt7ruy6797qGi6NIWr7nEF0Sfn9LmPNixi3ReClHRNb13MOFl8Po/ynV69TrbX+Uhaisp1Ht7/ANTKquA+BFY/EIrSFzB5hYPh8JYLX8t03uNL5vradhIv6uEcYiYfaioNl31Ed/2p7bmbodWTwXwarD4hVTwWOOO0v4LByB3PlunN1p3nWttyGi/qoVbEVDbMXBtOeog9d9Key5n0mbbQ0gm2yskvBD9AISAAAAAAAAAAAAAAAAAAAAAAAAAAAAAAAAAAAAAAAAAAAAAAAAAAAAAAAAAAAAAAAAAAAAAAAAAAAAAAAAABnbqY5uYuZ8sX8bq5epLJnM+W07J9OurdmFe5pustuF9FMYdDjG041Es+T1319C03pcuUWaZruTiI7yvbt13aootxmZdIxU/PJm5dwLk8FQtDQfHVpUW5whbhNcNsLhnV/israXqZdX5UVrdLnYiqrPMZ/iAYYQMLOk4z8+ksLr4qG+XZJC6NRklHfoUs7rXfoX5bH0MZP4eNOYa1dMpritNZ3zbEdOxxTPDRDHL7pi2EdyTJh3ch0kfRPbbr3HcY9PqbOrp47FcVR7L6jT3tLVwXqZpn3STk+yiQeB0uRV1Xs7tXxF7I1GngdKohvy28tp3W06n27f6+JlxlxmozA6kXKvrSK22E22GdDp73qttq7m0LNNjdSfUuv+9vNjtjrReAFHLq6sXtRrtwkLpdLiLOtNr72216NO8k+pdfBe9udmKEpx5rynobOHivQfOqIh9eiG5pBQ2xqWiXn3sGl5Wp5DZ/hdNNvtM1D6OjB1ZifYWZjM68ljsb5rL9qEg9r5bk27AK39ayhov10rZNOk4Yl+ojr9qf1PoXkizWy3MvQMQ3MT4esae0c+ge5fDb70Tw3qEy20vUywSvTvbwqx+fjgti3RONNEQlXUFFbkAvcu3oeLas8435dQhSrqaWfjp/teludZFFUTmFk1UYLzPhMU4biOYK2XXLaoGGQ10ibw38Mp37S9+vdYRPKMyRznEOtQDlKWNHxLZHAtT6ZYqczS3q35dyOQM3uehPqkg/1JXQva3uLZZVs/NCZipmxRc7k/ynWkTq2JLxD0fu6UvuK+oTDttJsyyS+p9denyVjwWNVY1OfRrirHh9F/TXtNMRepmnPlagAAZ2AAAAAAAAAAAAAAAAAAAAAAAAAAAAAAAAAAAAAAAAAAAAAAAAAAAAAAAAAAAAAAAAAAAAAAAAAAB8YyMhpfDLi4tzbabtqVYztc7F0Lr5MhjawrCnaCp2LqyrJjwMqgdviIjZcd0a3Etp7W0qUd1LSXQj8/oOWGKmK9YZ+KjlzSJR8t0PIt7cTxDUZr3m0W66GHis9Ce1/u9kl1xX79vTW5u3ZxEMtmzc1FyLdqMzLM454+1pnumq8LqDY5BhjA257HamovmmtLT8N6brbMQxtRMItPYo9eq6u0iI5Apqmafo+TMU/Tcu4OBhtW21vLc06lms+qzMz7lKPz7j6yKQSamJNDU/IIHhICE17TW6tzTqWa1dyzNR9yjPqfuMpCQcRHxKISEa3HnL6E6iK9iufU+nghzTdt4u7pc4Y5UR0jz7z7/R0ba9pt7ZbzPOues+PaPb6vzDoediEMQ6dTq76E3Ir2K5+engQHj5gRO8O6kZxmw2Z5RVcn1XRqREbm621D+XnFNlZpa/yH59jIjF86GoaHpaF33i3I5z719S8Goi6ajL7VCMM0WJVP0hTzr8zdsmWaeK7V+nuLZJH2pO99ReL/uLbbVf0F2m5an9UzjHnPaWLcPQ19E27lP6YzOe8e8IXyl4DPZyKuczEY7zPm8sh7cJLdkofitTT8Iv1YVxpSNKoZpXVvraxdDMz6bLQlxJoWVyPyQqT8L2lpVKspVK1TAsbcTUHHcSWpR/gTONQjyZl4M/BF+9xbcdOc5cms0uE8VkGxUl+IOAdTcnlFabu1I+CKI4Tg4Zho/qIpb6nNa4t1zqlNr6epERl6MAMIYujGHKyq31KnmVt0uhcPtm62n8NZtr1NqT4Irf16iT/iqU1M5XN8N8T4GR8XKZTzjncRxKW9jdTAsQ/aZmpWpRmXYk7W7rF1HshZtK53DMzeXRW/BxGqzuhSftPT9pkR+SMvA1X/KtZfs2abNHKmrOZ+HZtH+MaSzevVXq+dVPSP75p0i8KqQmstI5Q1wrx/hxOp1du7r2KWReCMv+txU3MhlalVfNbM3b5fOj/Bi7qd1/gmrsS6lBWQgi6/rfyJ8w7r0qaeOXTQ/7vc8Of6FiWfhKTUrUpRf0EvziUyyope5BTBjeYVbpqUm9lEfsZH5Ihq+lu1UVRe0s8NcfmJjvDYNRb5TZ1McVE/mY91dcrWfSoueweBeZ5GzWbO5oqC6Fc2uh+KP6WCh9pjaZ2G/v7/u86iF7xz2zAZdZdVcm5JUJ7zJfwMx7k6O9pTnpIdIzuaST3H+5DVMrWb2pctc8h8C8xCtFLo18BO7Nny+6H4pz6eEZccd3HH2Udy+37i6XIt72vd7e4xwVRw3I6x5948tN3Pa69DPqUfqtz0nx7T4l00AAHrvJAAAAAAAAAAAAAAAAAAAAAAAAAAAAAAAAAAAAAAAAAAAAAAAAAAAAAAAAAAAAAAAAAAAGAr2vaTwxpOOriuJry2SS3a4qK2HXtvcdS0jsaSpZ3WtJdCO17n0uY9dUVRIqMkUTUtSx3By2D0b7+0tzRrWlCe1BGo7qUkuhe45Q17iTV+fStmZ3OoTktASHVwMBuNRO1vspS56iUsvqu/CEruI7arFZJdcOov29Lbm7dnEQy2LFepuRatxmZK+ryvM+FeNTyfw/JcPpLq5dLdbMTs7zKUu+qhLL6tT8ISu4jtqsVkl1miRSaWSCWMymSsbEAxq2WtSlaNSjUruUZqO6jM+pj7wMsl8rl7UplsNsQbGrba1qVp1KNR9xmZn1Mz6mPZCwsVGxSIKCb3oh6+hFyTexXPqfTwRjmW7bvd3W54ojpH53dJ2vare2W/NU9Z/Oz9QcFEzCKRCQbet5y+lNyK9iv5Pp4IxOtD0JC0qwp5wtyPdtuO9StY1W6ajT9qrdB+aGoaGpVk3XT1x734jnUrWNVumo0/ar2GSq2rIWk5eT7rfERTv4EPc0btlJJXdYyTYlX6+RjsWIsx6lzqjU6ib8+lb6fX/4xWI1fQ1ISxSWX9EYu2g9JnpspF/ymR9FCkGE9Olnmx/RTz9Oc9wppK/zI9xnC7fFQS1wnaRsxJ3ioW3pmr7e6yT6qnmNZZxMSXMDaCnXCwEbbnU94ZpejRDpiYf6Z0mlHdUMtvsWXnUr2I+nWF2F9EYM0LLMNcOJLymnZPvcHB8S8/tbry3nPUeWtxV3HVq6qO17FYiIi3PZNrqtzGs1EYq/jHiPPxnt4hqe7bjTMTpdPOY/lPmfHwj6tqAAGyNeavibhlQ+MdDzLDjEeSc3p2b7PGwXEvQ+7tPIeb9RlaHE2cbQroor2sdyMyHK+oJHX+QqvobC/FGZc6oGe6/lqpNliG4rZZJ+L+kYN55Gl+Lba9RRX06k3SZkXXgatifhhQ2MtDTPDbEmR84pycbPGwXEvQ+7tPIeb9RlaHE2cbQrtUV7WO5GZHg1Wmtay1Ni9GaZ/Mx4ln0+ouaS7F61OJj8x8FK4d1qNQl6Dd3G130q0mV7eeh/0MSFhtiAmSOlJpwv6FV9t238P0Wo+iUma9SjIup9BTyo5FiJkHr6DwwxKi/mGgp3ufLVRbbEJxeyyT8X9Kyb7zeh+LQ36iivp1JukzIp8g4yDmUOiOgH95hy+lek03sdj6H18kY5puO3Xtnvc+dM9J7T7T7/AJDomg19jd7MxHKqOsd4949vyVqYplp9k4eJRuIX9xXMr2O/sKx5hsvUiqSQOSyZQ+uWqtsva1lw/e0pXalwlL1KSRdT6CQ8NsQ0y9DchnC7QxX2Xbfh/epXRKbnczIupiWohlp+HUxFI1pXa6bmV7HfyQtbuTXi7anFcfn9MNy3NmZtXIzTP9TCkWTzM7U2W6qGsumN0RrpVOrlEw0Nlyv04iMf9KGaccf3XXmk97nZ5Lpci6ajn9mOy7ySrZeuVzNvRCuW4KJus9iymVOdiXSNWo0kXcfTyQ9+QfNBGy+aQeU7F2F4CrYTc5G/rJ3m+tMVHxHbDtbUPtNG2Xe7337et0jeNp3SNfRwXOVynrHn3j/nZp+57ZOhq47fO3V0nx7T8PPdfIAAew8oAAAAAAAAAAAAAAAAAAAAAAAAAAAAAAAAAAAAAAAAAAAAAAAAAAAAAAAAAAAAABzk+IVi3VGL+IB5PMP5psQbH/GULsNq4m7EJMIDvdQg0aTbWfou9fC/ZIrXXTbpmuucRHWVqKKrlUUURmZ6NAx3xjVn2r+AkNEwnCYeUhu7s53Nzj+KZaUXoOIYfa24iEUjoatV9XRNryrKJNLKbljUikkPw8BD6tprWpenUo1H1UZqPuUZ9TGNo+i5HQkiYpynWdmDh9WktS1fctSz+9Sj8rP3GwwkNER0S3BQjWt92+hGoivYrn1Pp4Icx3ndq90u4p5UR0j7z7z/AKdJ2ja6dttZq/fPWftHw/2/sHCRUdEog4VrcecvpTqIr2K59T6eCE6ULQrFKw+68vdjl/iO2NNrGq3TUZfaqw/tB0LD0rCk9EHuxy/xHOqfBqIuhKMvtVYZOpqrgaXgOMi06lr/AAmrmWuyiJXUiO1tRH1GCxYi1HqV9U6jUVXp9O30+r+1TVMBSsBxcX3OK/Ca7i12Ukj6kR2tqv1HP/GvFrEPHPEaFwQwbh+bVXONepvWwx+Ew3El1iEIb/CacP7y8e5mRH9scMc8Q8ZcRGcFMC5Zzisp1q2YbeYh7bLDcSrvim0Nfgtun1WXi3UzIjvjlKymUdlRoh+RyiP51Uk208+n+07Dcz2nn1Q30ynnW2dtuINv0zLVp1KuZ9Ns2jaJuY1Wpjl/GmfrP2j5tY3Pc4tROm088/5VfaPvP9PdlZywUnlfoIqWk0bzWcRf+LTnbdY4/S8+tj0FOuJa20PmjsPutqPqfSZwAbW1oAAAAAAGs4lYa0Ti/RMxw6xFkvNqem2zxkHxLzG7tPIeb9RlSFps42hXRRXtY7kZkOVFXUXidkIrWGpGtZh8x4fTTXyydbUPB8ZtNJce+nbU++3ofi0o7jLVp1FdJnbr6MPV9IU7XlOxdJ1ZLuOlUdt8RD7zjWvQ4lxPc2pKispCT6GXj9Bh1Gmtau3Nm9GaZ/M/Fm0+ou6W5F2zOKo/MfBRGSzaX1FKmJ7JoniIGI1bTuhSNWlRpPtURGVlJMupewlnDnEMoUm5JOnPSK+07b7PvUrolNzudi6mK35hMvlX5JFxGKmGDXN8KHNHPZdqah+R22mIb1X3HomJ34qKcV2J9O1ldpkZbTSFWSCupI1UVNR/Fwburv2lt+FqR4WST8oV7ew5zuO1XtnuepTztz0n7T4n3dB0G52N4tenXyrjrH3j/i3UfBQsxg1wcezrYdtrRqMr2MjLqXXyRDnrnLwOripqjkdKS2juYS5XFaZnzBlq9m4dw/RNwlfck0+fa4t/hziHvE3I5+7qcK+09ptq+9Su1CensXUxk8doGqIvDGbroeR82qFrh+BheJbY13iGtzvd7Cs2Sj7v0sXUyF9FqJpu037MRxRyjM4jn59nz6uxi3VYvZ4Z64jM8vDWMh+a2q8ZZNH4c4vK3a6pra4mZWbTzTiFxTyPSh2UMsbTDbaeij1+Tsq5HbkcUI7CvMRg48WYn5h5JifT32q4SBieH3yKEP8AOuHXqhnP9M7avZRXHWvL5jFBY/YQSDFuXynlkPPeK0Qu+b23sRTsOfeaEGdzZM/tK17dbXPoOm1FGpo4qKonE4nHTPeGj6nT16avhriYzGYz1xPSUiAAD6GAAAAAAAAAAAAAAAAAAAAAAAAAAAAAAAAAAAAAAAAAAAAAAAAAAAAAAAAAAcasjbKImlJtU78RuzOYbG+rRpvtuRKE9C7ft/Qi/wBx2VHKDHGkZZkbzARSZTTvJML670cmY4tUT/BQTe/3KU9EfxMUZ9+n7ul0l08vetNc1ehrt2f3dcecdvm9PZ9Tb0utouXf2+fGe6aoSEipg+iFgWd55y+hGok3sVz6n08EYnShKGhaTZN10tyOe/EX1K1jVbpqMvtUIpwqqynoWbQ80ciNUJEa9qJ0LLTpStJ9lrn16dS/cR49nKrGhMaZ1RWJEl2JFE8NymK4lpWzphNx/sZYUtV1rQXefTyXS5DQNu0U3+OqnnVTGcd/lHefZu+5az0uGif2z37fOfCxDGN9ATSTRMzpaa81OG0elsPMX1L0+Vtl+ij8e37jnvOcwWPuZSaQ2GNC0Horqea9iG5pBHq2Uk8rvdbbZL0GFn1UX6dVWI8HIcKarxBxhqClstDXEw8fwnMC1No2tEKa2v4xaTVc0P8A2mVrdfyjqdleyuUXlgo56RyB7mM7mennM40us8ftuvKY9BbriGttD5o7DLVbUfXxueh2izn1a44qZxNOYxMecxnHX2ahrNzux/5UTiqMxVMTyn4d/m8mU/KVQ2VOkIuVSCI5pUc72+fz3Q8xzLZdfVDfTLedbZ224g2/TMtVtSrmfScwAbA8QAAAAAAAAAAAAABz/wAVPh6TrC2ZRFe5Qy4RbejapLsc3rpQ0r62YRKtNtyIe6p630fymOgACtdFN2maK4zE9Ylai5XaqiuicTHdzAwdxrpLGOV78h9CMa/HgvVVs3U4SfUU2glXJs1dPHgWZw3xEdddOSz16/8AoOafPRaldEp/p5MfHMp8P2g8d6zexOpmofkus5jp5rOOEemPG7bTLLPoLiUNN6GWlI7Ulq13PqVzpq3jJX2DE6hqDzYU58sTd3XeL4xmN12Ru/ZAIWkrIdhy+781/JKItK3D/Hbumqm/oP1U96e/y8/Ln7Nx0O/WtXT6Gu/TPart8/H090wZo8B8acasRSabieDoKD/De0QjmvWwzft3EPFZ9q3/AF/l84DJHNzy9Zr5ngrLaW42WYr7O3NeO2+B5ZLYmJP0VE4p3Wp40dVo02v3F0KZsPMaok5Wk2Uc3guuyq5Q+nuXq6bdz7v1/T9xVLNjET+VRtEzakivUMHzLgkdndrJhLnVy6C9M1eS/p1F9o3O5Ost6bGKZiYxjHPrEz8Z6se57bRTpLl/OaomJic55dMfKHXwAAbo1AAAAAAAAAAAAAAAAAAAAAAAAAAAAAAAAAAAAAAAAAAAAAAAAAAAAAAAAAAaziVhrRWL9FTHDvESS82p6bbPGQfEvMbu08h5v1GVIWmzjaFdFFe1juRmQ2YAHNetch2YjAjci8tFSfOMumNt2nuDgZfwu3pJP1UbELUvUp19zpa2jT7ptrLmUDORmCqSV07i3R/9m0ia39c65hKpxw929ZfTw7yFr1LZbR56bmrwk79TgGCdJp5u+vNuOPz3fRGrvxamxxzweGn4U4TUNgtRsHQWHkn5ZJoDc2YfiHntOt1bqu55a1n3urPqo/P6ERFuAAM75wAAAAAAAAAAAAAAAAAAAAa7iHh5R+K1HzCga+k/NJDNNri4TiHWNzbdQ6jvaUlZWW2g+iivax3IzIbEACjmI/wr8PY2YS2LwBrb+ypqE3uKZ5a/POK1JQSO6Ki7o0mTx9PO71+0ht+WrIBKcEK9VibXWInz/UkHbk0byhUq5drZeZf9NqIW29uNuoT3p7du5dVGZW0AV4Kc8WIz5xz/AL6rcdXDw5nHgAAFlQAAAAAAAAAAAAAAAAAAAAAAAAAAAAAAAAAAAAAAAAAAAAAAAAAAAAAAAAAAAAAAAAAAAAAAAAAAAAAAAAAAAAAAAAAAAAAAAAAAAAAAAAAAAAAAAAAAAAAAAAAAAAAAAAAAAAAAAAAAAAAAAAAAAAAAAAAAAAAAAAAAAAAAAAAAAAAAAAAAAAAAAAAAAAAAAAAAAAAAAAAAAAAAAAAAAAAAAAAAAAAAAAAAAAAAAAAAAAAAAAAAAAAAAAAAAAAAAAAAAAAAAAAAAAAAAAAAAAAAAAAAAAAAAAAAAAAAAAAAAAAAAAAAAAAAAAAAAAAAAAAAAAAAAAAAAAAAAAAAAAAAAAAAAAAAAAAAAAAAAAAAAAAAAAAAAAAAAAAAAAAAAAAAAAAAAAAAAAAAAAAAAAAAAAAAAAAAAAAAAAAAAAAAAAAAAAAAAAAAAAAAAAAAAAAAAAAAAAAAAAAAAAAAAAAAAAAAAAAAAAAAAAAAAAAAAAAAAAAAAAAAAAAAAAAAAAAAAAAAAAAAAAAAAAAAAAAAAAAAAAAAAAAAAAAAAAAAAAAAAAAAAAAAAAAAAAAAAAAAAAAAAAAAAAAAAAAAAAAAAAAAAAAAAAAH/9k=;" vertex="1" parent="lpTKYO4_jCH7H7xKTmGM-47">
          <mxGeometry x="430" y="60" width="170" height="170" as="geometry" />
        </mxCell>
        <mxCell id="lpTKYO4_jCH7H7xKTmGM-53" style="edgeStyle=orthogonalEdgeStyle;rounded=0;orthogonalLoop=1;jettySize=auto;html=1;entryX=0;entryY=0.5;entryDx=0;entryDy=0;" parent="1" source="lpTKYO4_jCH7H7xKTmGM-52" target="lpTKYO4_jCH7H7xKTmGM-48" edge="1">
          <mxGeometry relative="1" as="geometry" />
        </mxCell>
        <mxCell id="lpTKYO4_jCH7H7xKTmGM-54" style="edgeStyle=orthogonalEdgeStyle;rounded=0;orthogonalLoop=1;jettySize=auto;html=1;entryX=0;entryY=0.5;entryDx=0;entryDy=0;" parent="1" source="lpTKYO4_jCH7H7xKTmGM-52" target="lpTKYO4_jCH7H7xKTmGM-49" edge="1">
          <mxGeometry relative="1" as="geometry" />
        </mxCell>
        <mxCell id="lpTKYO4_jCH7H7xKTmGM-57" style="edgeStyle=orthogonalEdgeStyle;rounded=0;orthogonalLoop=1;jettySize=auto;html=1;entryX=0;entryY=0.5;entryDx=0;entryDy=0;" parent="1" source="lpTKYO4_jCH7H7xKTmGM-52" target="lpTKYO4_jCH7H7xKTmGM-56" edge="1">
          <mxGeometry relative="1" as="geometry" />
        </mxCell>
        <mxCell id="lpTKYO4_jCH7H7xKTmGM-64" style="edgeStyle=orthogonalEdgeStyle;rounded=0;orthogonalLoop=1;jettySize=auto;html=1;entryX=0;entryY=0.5;entryDx=0;entryDy=0;" parent="1" source="lpTKYO4_jCH7H7xKTmGM-52" target="lpTKYO4_jCH7H7xKTmGM-59" edge="1">
          <mxGeometry relative="1" as="geometry" />
        </mxCell>
        <mxCell id="lpTKYO4_jCH7H7xKTmGM-66" style="edgeStyle=orthogonalEdgeStyle;rounded=0;orthogonalLoop=1;jettySize=auto;html=1;entryX=0;entryY=0.5;entryDx=0;entryDy=0;" parent="1" source="lpTKYO4_jCH7H7xKTmGM-52" target="lpTKYO4_jCH7H7xKTmGM-65" edge="1">
          <mxGeometry relative="1" as="geometry">
            <Array as="points">
              <mxPoint x="195" y="360" />
              <mxPoint x="195" y="610" />
              <mxPoint x="340" y="610" />
            </Array>
          </mxGeometry>
        </mxCell>
        <mxCell id="LmhyNOgJQZw7JddNehP--3" style="edgeStyle=orthogonalEdgeStyle;rounded=0;orthogonalLoop=1;jettySize=auto;html=1;entryX=0;entryY=0.5;entryDx=0;entryDy=0;" edge="1" parent="1" source="lpTKYO4_jCH7H7xKTmGM-52" target="LmhyNOgJQZw7JddNehP--2">
          <mxGeometry relative="1" as="geometry" />
        </mxCell>
        <mxCell id="lpTKYO4_jCH7H7xKTmGM-52" value="Usuario" style="shape=umlActor;verticalLabelPosition=bottom;verticalAlign=top;html=1;outlineConnect=0;strokeColor=#000000;" parent="1" vertex="1">
          <mxGeometry x="20" y="330" width="30" height="60" as="geometry" />
        </mxCell>
      </root>
    </mxGraphModel>
  </diagram>
</mxfile>
